<?xml version="1.0" encoding="UTF-8" standalone="no"?>
<!DOCTYPE svg PUBLIC "-//W3C//DTD SVG 1.1//EN" "http://www.w3.org/Graphics/SVG/1.1/DTD/svg11.dtd">
<svg xmlns="http://www.w3.org/2000/svg" xmlns:xl="http://www.w3.org/1999/xlink" version="1.1" viewBox="288 135 720 297" width="60pc" height="297pt" xmlns:dc="http://purl.org/dc/elements/1.1/"><metadata> Produced by OmniGraffle 6.5.3 <dc:date>2016-05-31 18:06:41 +0000</dc:date></metadata><defs/><g stroke="none" stroke-opacity="1" stroke-dasharray="none" fill="none" fill-opacity="1"><title>small-build</title><g><title>flat</title><path d="M 786.56595 275.1766 L 660.8231 149.439095 C 653.58524 142.19589 641.84033 142.19589 634.59242 149.439095 L 608.48397 175.55225 L 641.60526 208.67355 C 649.30262 206.07433 658.12987 207.81885 664.26356 213.95379 C 670.43423 220.12697 672.164 229.03007 669.4974 236.75532 L 701.42143 268.67558 C 709.1467 266.01274 718.05354 267.73406 724.2242 273.9132 C 732.84335 282.52982 732.84335 296.49815 724.2242 305.12198 C 715.5988 313.74613 701.6333 313.74613 693.00414 305.12198 C 686.5216 298.63318 684.9175 289.107 688.205 281.11942 L 658.4298 251.34673 L 658.4298 329.69279 C 660.52944 330.73335 662.51278 332.1193 664.26356 333.86507 C 672.8827 342.48327 672.8827 356.45003 664.26356 365.08139 C 655.64443 373.69676 641.6689 373.69676 633.05602 365.08139 C 624.4369 356.45003 624.4369 342.48327 633.05602 333.86507 C 635.18636 331.73724 637.6533 330.1275 640.28544 329.04995 L 640.28544 249.97927 C 637.6533 248.90172 635.1923 247.30545 633.05602 245.1629 C 626.52805 238.63711 624.95717 229.05451 628.30547 221.03652 L 595.65337 188.37941 L 509.43133 274.59395 C 502.18956 281.84311 502.18956 293.58801 509.43133 300.8309 L 635.1801 426.56866 C 642.41954 433.81045 654.16068 433.81045 661.4108 426.56866 L 786.56595 301.41356 C 793.81135 294.16941 793.81135 282.41855 786.56595 275.1766 Z" fill="#f14e32"/><path d="M 819.82843 279 L 934.76393 279 C 935.5215 279 936.214 278.572 936.5528 277.89443 L 952.5528 245.89443 C 953.04676 244.90647 952.6463 243.70512 951.65836 243.21115 C 951.38065 243.07229 951.0744 243 950.76393 243 L 787.82843 243 C 786.72386 243 785.82843 243.89543 785.82843 245 C 785.82843 245.53043 786.03914 246.03914 786.4142 246.41421 L 818.4142 278.41421 C 818.7893 278.78929 819.298 279 819.82843 279 Z M 765.82843 225 L 961.76393 225 C 962.5215 225 963.214 224.572 963.5528 223.89443 L 979.5528 191.89443 C 980.04676 190.90647 979.6463 189.70512 978.65836 189.21115 C 978.38065 189.07229 978.0744 189 977.76393 189 L 733.82843 189 C 732.72386 189 731.82843 189.89543 731.82843 191 C 731.82843 191.53043 732.03914 192.03914 732.4142 192.41421 L 764.4142 224.41421 C 764.7893 224.78929 765.298 225 765.82843 225 Z M 711.82843 171 L 988.76393 171 C 989.5215 171 990.214 170.572 990.5528 169.89443 L 1006.5528 137.89443 C 1007.04676 136.90647 1006.6463 135.705124 1005.65836 135.211146 C 1005.38065 135.07229 1005.0744 135 1004.76393 135 L 679.82843 135 C 678.72386 135 677.82843 135.89543 677.82843 137 C 677.82843 137.53043 678.03914 138.03914 678.4142 138.41421 L 710.4142 170.41421 C 710.7893 170.78929 711.298 171 711.82843 171 Z M 361.23607 279 L 476.17157 279 C 476.702 279 477.2107 278.78929 477.5858 278.41421 L 509.5858 246.41421 C 510.36684 245.63316 510.36684 244.36684 509.5858 243.58579 C 509.2107 243.21071 508.702 243 508.17157 243 L 345.23607 243 C 344.1315 243 343.23607 243.89543 343.23607 245 C 343.23607 245.31049 343.30836 245.61672 343.44721 245.89443 L 359.44721 277.89443 C 359.786 278.572 360.47852 279 361.23607 279 Z M 334.23607 225 L 530.17157 225 C 530.702 225 531.2107 224.78929 531.5858 224.41421 L 563.5858 192.41421 C 564.36684 191.63316 564.36684 190.36684 563.5858 189.58579 C 563.2107 189.21071 562.702 189 562.17157 189 L 318.23607 189 C 317.1315 189 316.23607 189.89543 316.23607 191 C 316.23607 191.31049 316.30836 191.61672 316.44721 191.89443 L 332.44721 223.89443 C 332.786 224.572 333.47852 225 334.23607 225 Z M 307.23607 171 L 584.17157 171 C 584.702 171 585.2107 170.78929 585.5858 170.41421 L 617.5858 138.41421 C 618.36684 137.633165 618.36684 136.366835 617.5858 135.58579 C 617.2107 135.21071 616.702 135 616.17157 135 L 291.23607 135 C 290.1315 135 289.23607 135.89543 289.23607 137 C 289.23607 137.31049 289.30836 137.61672 289.44721 137.89443 L 305.44721 169.89443 C 305.786 170.572 306.47852 171 307.23607 171 Z" fill="#4e443c"/></g></g></svg>
