<?xml version="1.0" encoding="UTF-8" standalone="no"?>
<!DOCTYPE svg PUBLIC "-//W3C//DTD SVG 1.1//EN" "http://www.w3.org/Graphics/SVG/1.1/DTD/svg11.dtd">
<svg xmlns="http://www.w3.org/2000/svg" xmlns:xl="http://www.w3.org/1999/xlink" version="1.1" viewBox="4455 72 738 648" width="738pt" height="54pc" xmlns:dc="http://purl.org/dc/elements/1.1/"><metadata> Produced by OmniGraffle 6.5.3 <dc:date>2016-05-31 22:02:45 +0000</dc:date></metadata><defs/><g stroke="none" stroke-opacity="1" stroke-dasharray="none" fill="none" fill-opacity="1"><title>variants</title><g><title>flat</title><rect x="4455" y="72" width="738" height="648" fill="#fafafa"/><path d="M 4962.566 428.1766 L 4836.823 302.4391 C 4829.5852 295.19589 4817.8403 295.19589 4810.5924 302.4391 L 4784.484 328.55225 L 4817.6053 361.67355 C 4825.3026 359.07433 4834.13 360.81885 4840.2636 366.9538 C 4846.4342 373.12697 4848.164 382.03007 4845.4974 389.75532 L 4877.4214 421.67558 C 4885.1467 419.01274 4894.0535 420.73406 4900.2242 426.9132 C 4908.8434 435.52982 4908.8434 449.49815 4900.2242 458.12198 C 4891.5988 466.74613 4877.6333 466.74613 4869.004 458.12198 C 4862.5216 451.63318 4860.9175 442.107 4864.205 434.11942 L 4834.4298 404.34673 L 4834.4298 482.69279 C 4836.5294 483.73335 4838.5128 485.1193 4840.2636 486.86507 C 4848.8827 495.48327 4848.8827 509.45003 4840.2636 518.0814 C 4831.6444 526.69676 4817.669 526.69676 4809.056 518.0814 C 4800.437 509.45003 4800.437 495.48327 4809.056 486.86507 C 4811.1864 484.73724 4813.6533 483.1275 4816.2854 482.04995 L 4816.2854 402.97927 C 4813.6533 401.90172 4811.1923 400.30545 4809.056 398.1629 C 4802.528 391.6371 4800.9572 382.05451 4804.3055 374.03652 L 4771.6534 341.3794 L 4685.4313 427.59395 C 4678.1896 434.8431 4678.1896 446.588 4685.4313 453.8309 L 4811.18 579.56866 C 4818.4195 586.81045 4830.1607 586.81045 4837.4108 579.56866 L 4962.566 454.41356 C 4969.8114 447.1694 4969.8114 435.41855 4962.566 428.1766 Z" fill="#f14e32"/><path d="M 4783.7574 581.5858 L 4644.5858 442.41421 C 4643.8047 441.63316 4643.8047 440.36684 4644.5858 439.58579 L 4783.7574 300.41421 C 4784.5384 299.63316 4784.5384 298.36684 4783.7574 297.58579 C 4783.3823 297.21071 4782.8736 297 4782.3431 297 L 4743 297 C 4742.4696 297 4741.961 297.21071 4741.5858 297.58579 L 4599.5858 439.58579 C 4598.8047 440.36684 4598.8047 441.63316 4599.5858 442.41421 L 4741.5858 584.4142 C 4741.961 584.7893 4742.4696 585 4743 585 L 4782.3431 585 C 4783.4477 585 4784.3431 584.10457 4784.3431 583 C 4784.3431 582.46957 4784.1324 581.96086 4783.7574 581.5858 Z" fill="#4e443c"/><path d="M 4783.7574 581.5858 L 4644.5858 442.41421 C 4643.8047 441.63316 4643.8047 440.36684 4644.5858 439.58579 L 4783.7574 300.41421 C 4784.5384 299.63316 4784.5384 298.36684 4783.7574 297.58579 C 4783.3823 297.21071 4782.8736 297 4782.3431 297 L 4743 297 C 4742.4696 297 4741.961 297.21071 4741.5858 297.58579 L 4599.5858 439.58579 C 4598.8047 440.36684 4598.8047 441.63316 4599.5858 442.41421 L 4741.5858 584.4142 C 4741.961 584.7893 4742.4696 585 4743 585 L 4782.3431 585 C 4783.4477 585 4784.3431 584.10457 4784.3431 583 C 4784.3431 582.46957 4784.1324 581.96086 4783.7574 581.5858 Z" stroke="black" stroke-linecap="round" stroke-linejoin="round" stroke-width="1"/><path d="M 4864.2426 581.5858 L 5003.4142 442.41421 C 5004.1953 441.63316 5004.1953 440.36684 5003.4142 439.58579 L 4864.2426 300.41421 C 4863.4616 299.63316 4863.4616 298.36684 4864.2426 297.58579 C 4864.6177 297.21071 4865.1264 297 4865.6569 297 L 4905 297 C 4905.5304 297 4906.039 297.21071 4906.4142 297.58579 L 5048.4142 439.58579 C 5049.1953 440.36684 5049.1953 441.63316 5048.4142 442.41421 L 4906.4142 584.4142 C 4906.039 584.7893 4905.5304 585 4905 585 L 4865.6569 585 C 4864.5523 585 4863.6569 584.10457 4863.6569 583 C 4863.6569 582.46957 4863.8676 581.96086 4864.2426 581.5858 Z" fill="#4e443c"/><path d="M 4864.2426 581.5858 L 5003.4142 442.41421 C 5004.1953 441.63316 5004.1953 440.36684 5003.4142 439.58579 L 4864.2426 300.41421 C 4863.4616 299.63316 4863.4616 298.36684 4864.2426 297.58579 C 4864.6177 297.21071 4865.1264 297 4865.6569 297 L 4905 297 C 4905.5304 297 4906.039 297.21071 4906.4142 297.58579 L 5048.4142 439.58579 C 5049.1953 440.36684 5049.1953 441.63316 5048.4142 442.41421 L 4906.4142 584.4142 C 4906.039 584.7893 4905.5304 585 4905 585 L 4865.6569 585 C 4864.5523 585 4863.6569 584.10457 4863.6569 583 C 4863.6569 582.46957 4863.8676 581.96086 4864.2426 581.5858 Z" stroke="black" stroke-linecap="round" stroke-linejoin="round" stroke-width="1"/></g></g></svg>
