<?xml version="1.0" encoding="UTF-8" standalone="no"?>
<!DOCTYPE svg PUBLIC "-//W3C//DTD SVG 1.1//EN" "http://www.w3.org/Graphics/SVG/1.1/DTD/svg11.dtd">
<svg xmlns="http://www.w3.org/2000/svg" xmlns:xl="http://www.w3.org/1999/xlink" version="1.1" viewBox="4455 792 738 648" width="738pt" height="54pc" xmlns:dc="http://purl.org/dc/elements/1.1/"><metadata> Produced by OmniGraffle 6.5.3 <dc:date>2016-05-31 22:02:45 +0000</dc:date></metadata><defs/><g stroke="none" stroke-opacity="1" stroke-dasharray="none" fill="none" fill-opacity="1"><title>variants</title><g><title>flat</title><rect x="4455" y="792" width="738" height="648" fill="#fafafa"/><path d="M 4962.566 1139.1766 L 4836.823 1013.4391 C 4829.5852 1006.1959 4817.8403 1006.1959 4810.5924 1013.4391 L 4784.484 1039.55225 L 4817.6053 1072.67355 C 4825.3026 1070.07433 4834.13 1071.81885 4840.2636 1077.9538 C 4846.4342 1084.127 4848.164 1093.03007 4845.4974 1100.7553 L 4877.4214 1132.6756 C 4885.1467 1130.01274 4894.0535 1131.73406 4900.2242 1137.9132 C 4908.8434 1146.5298 4908.8434 1160.49815 4900.2242 1169.122 C 4891.5988 1177.7461 4877.6333 1177.7461 4869.004 1169.122 C 4862.5216 1162.6332 4860.9175 1153.107 4864.205 1145.1194 L 4834.4298 1115.3467 L 4834.4298 1193.6928 C 4836.5294 1194.73335 4838.5128 1196.1193 4840.2636 1197.8651 C 4848.8827 1206.4833 4848.8827 1220.45 4840.2636 1229.0814 C 4831.6444 1237.69676 4817.669 1237.69676 4809.056 1229.0814 C 4800.437 1220.45 4800.437 1206.4833 4809.056 1197.8651 C 4811.1864 1195.73724 4813.6533 1194.1275 4816.2854 1193.04995 L 4816.2854 1113.97927 C 4813.6533 1112.9017 4811.1923 1111.30545 4809.056 1109.1629 C 4802.528 1102.6371 4800.9572 1093.0545 4804.3055 1085.0365 L 4771.6534 1052.3794 L 4685.4313 1138.59395 C 4678.1896 1145.8431 4678.1896 1157.588 4685.4313 1164.8309 L 4811.18 1290.5687 C 4818.4195 1297.81045 4830.1607 1297.81045 4837.4108 1290.5687 L 4962.566 1165.41356 C 4969.8114 1158.1694 4969.8114 1146.41855 4962.566 1139.1766 Z" fill="#f14e32"/><path d="M 4964.5804 1112.5539 L 4864.211 1011.40876 C 4863.433 1010.6247 4863.438 1009.3584 4864.222 1008.58035 C 4864.5965 1008.2086 4865.103 1008 4865.6307 1008 L 4904.9922 1008 C 4905.5273 1008 4906.04 1008.21436 4906.4158 1008.5952 L 4967.4235 1070.41586 C 4967.793 1070.79014 4968 1071.29484 4968 1071.8207 L 4968 1111.14516 C 4968 1112.2497 4967.1046 1113.14516 4966 1113.14516 C 4965.467 1113.14516 4964.956 1112.9323 4964.5804 1112.5539 Z" fill="#4e443c"/><path d="M 4964.5804 1112.5539 L 4864.211 1011.40876 C 4863.433 1010.6247 4863.438 1009.3584 4864.222 1008.58035 C 4864.5965 1008.2086 4865.103 1008 4865.6307 1008 L 4904.9922 1008 C 4905.5273 1008 4906.04 1008.21436 4906.4158 1008.5952 L 4967.4235 1070.41586 C 4967.793 1070.79014 4968 1071.29484 4968 1071.8207 L 4968 1111.14516 C 4968 1112.2497 4967.1046 1113.14516 4966 1113.14516 C 4965.467 1113.14516 4964.956 1112.9323 4964.5804 1112.5539 Z" stroke="black" stroke-linecap="round" stroke-linejoin="round" stroke-width="1"/><path d="M 4683.4196 1112.5539 L 4783.789 1011.40876 C 4784.567 1010.6247 4784.562 1009.3584 4783.778 1008.58035 C 4783.4035 1008.2086 4782.897 1008 4782.3693 1008 L 4743.0078 1008 C 4742.4727 1008 4741.96 1008.21436 4741.5842 1008.5952 L 4680.5765 1070.41586 C 4680.207 1070.79014 4680 1071.29484 4680 1071.8207 L 4680 1111.14516 C 4680 1112.2497 4680.8954 1113.14516 4682 1113.14516 C 4682.533 1113.14516 4683.0441 1112.9323 4683.4196 1112.5539 Z" fill="#4e443c"/><path d="M 4683.4196 1112.5539 L 4783.789 1011.40876 C 4784.567 1010.6247 4784.562 1009.3584 4783.778 1008.58035 C 4783.4035 1008.2086 4782.897 1008 4782.3693 1008 L 4743.0078 1008 C 4742.4727 1008 4741.96 1008.21436 4741.5842 1008.5952 L 4680.5765 1070.41586 C 4680.207 1070.79014 4680 1071.29484 4680 1071.8207 L 4680 1111.14516 C 4680 1112.2497 4680.8954 1113.14516 4682 1113.14516 C 4682.533 1113.14516 4683.0441 1112.9323 4683.4196 1112.5539 Z" stroke="black" stroke-linecap="round" stroke-linejoin="round" stroke-width="1"/><path d="M 4683.4196 1191.4461 L 4783.789 1292.59124 C 4784.567 1293.3753 4784.562 1294.6416 4783.778 1295.41965 C 4783.4035 1295.7914 4782.897 1296 4782.3693 1296 L 4743.0078 1296 C 4742.4727 1296 4741.96 1295.7856 4741.5842 1295.4048 L 4680.5765 1233.58414 C 4680.207 1233.20986 4680 1232.7052 4680 1232.1793 L 4680 1192.85484 C 4680 1191.7503 4680.8954 1190.85484 4682 1190.85484 C 4682.533 1190.85484 4683.0441 1191.0677 4683.4196 1191.4461 Z" fill="#4e443c"/><path d="M 4683.4196 1191.4461 L 4783.789 1292.59124 C 4784.567 1293.3753 4784.562 1294.6416 4783.778 1295.41965 C 4783.4035 1295.7914 4782.897 1296 4782.3693 1296 L 4743.0078 1296 C 4742.4727 1296 4741.96 1295.7856 4741.5842 1295.4048 L 4680.5765 1233.58414 C 4680.207 1233.20986 4680 1232.7052 4680 1232.1793 L 4680 1192.85484 C 4680 1191.7503 4680.8954 1190.85484 4682 1190.85484 C 4682.533 1190.85484 4683.0441 1191.0677 4683.4196 1191.4461 Z" stroke="black" stroke-linecap="round" stroke-linejoin="round" stroke-width="1"/><path d="M 4964.5804 1191.4461 L 4864.211 1292.59124 C 4863.433 1293.3753 4863.438 1294.6416 4864.222 1295.41965 C 4864.5965 1295.7914 4865.103 1296 4865.6307 1296 L 4904.9922 1296 C 4905.5273 1296 4906.04 1295.7856 4906.4158 1295.4048 L 4967.4235 1233.58414 C 4967.793 1233.20986 4968 1232.7052 4968 1232.1793 L 4968 1192.85484 C 4968 1191.7503 4967.1046 1190.85484 4966 1190.85484 C 4965.467 1190.85484 4964.956 1191.0677 4964.5804 1191.4461 Z" fill="#4e443c"/><path d="M 4964.5804 1191.4461 L 4864.211 1292.59124 C 4863.433 1293.3753 4863.438 1294.6416 4864.222 1295.41965 C 4864.5965 1295.7914 4865.103 1296 4865.6307 1296 L 4904.9922 1296 C 4905.5273 1296 4906.04 1295.7856 4906.4158 1295.4048 L 4967.4235 1233.58414 C 4967.793 1233.20986 4968 1232.7052 4968 1232.1793 L 4968 1192.85484 C 4968 1191.7503 4967.1046 1190.85484 4966 1190.85484 C 4965.467 1190.85484 4964.956 1191.0677 4964.5804 1191.4461 Z" stroke="black" stroke-linecap="round" stroke-linejoin="round" stroke-width="1"/></g></g></svg>
