<?xml version="1.0" encoding="UTF-8" standalone="no"?>
<!DOCTYPE svg PUBLIC "-//W3C//DTD SVG 1.1//EN" "http://www.w3.org/Graphics/SVG/1.1/DTD/svg11.dtd">
<svg xmlns="http://www.w3.org/2000/svg" xmlns:xl="http://www.w3.org/1999/xlink" version="1.1" viewBox="1863 792 738 648" width="738pt" height="54pc" xmlns:dc="http://purl.org/dc/elements/1.1/"><metadata> Produced by OmniGraffle 6.5.3 <dc:date>2016-05-31 22:02:45 +0000</dc:date></metadata><defs/><g stroke="none" stroke-opacity="1" stroke-dasharray="none" fill="none" fill-opacity="1"><title>variants</title><g><title>flat</title><rect x="1863" y="792" width="738" height="648" fill="#ffffff"/><path d="M 2370.566 1139.1766 L 2244.8231 1013.4391 C 2237.5852 1006.1959 2225.8403 1006.1959 2218.5924 1013.4391 L 2192.484 1039.55225 L 2225.6053 1072.67355 C 2233.3026 1070.07433 2242.1299 1071.81885 2248.2636 1077.9538 C 2254.4342 1084.127 2256.164 1093.03007 2253.4974 1100.7553 L 2285.4214 1132.6756 C 2293.1467 1130.01274 2302.0535 1131.73406 2308.2242 1137.9132 C 2316.8434 1146.5298 2316.8434 1160.49815 2308.2242 1169.122 C 2299.5988 1177.7461 2285.6333 1177.7461 2277.0041 1169.122 C 2270.5216 1162.6332 2268.9175 1153.107 2272.205 1145.1194 L 2242.4298 1115.3467 L 2242.4298 1193.6928 C 2244.5294 1194.73335 2246.5128 1196.1193 2248.2636 1197.8651 C 2256.8827 1206.4833 2256.8827 1220.45 2248.2636 1229.0814 C 2239.6444 1237.69676 2225.6689 1237.69676 2217.056 1229.0814 C 2208.4369 1220.45 2208.4369 1206.4833 2217.056 1197.8651 C 2219.1864 1195.73724 2221.6533 1194.1275 2224.2854 1193.04995 L 2224.2854 1113.97927 C 2221.6533 1112.9017 2219.1923 1111.30545 2217.056 1109.1629 C 2210.528 1102.6371 2208.9572 1093.0545 2212.3055 1085.0365 L 2179.6534 1052.3794 L 2093.4313 1138.59395 C 2086.1896 1145.8431 2086.1896 1157.588 2093.4313 1164.8309 L 2219.1801 1290.5687 C 2226.4195 1297.81045 2238.1607 1297.81045 2245.4108 1290.5687 L 2370.566 1165.41356 C 2377.8114 1158.1694 2377.8114 1146.41855 2370.566 1139.1766 Z" fill="#f14e32"/><path d="M 2091.4142 1112.5858 L 2230.5858 973.4142 C 2231.3668 972.63316 2232.6332 972.63316 2233.4142 973.4142 C 2233.4142 973.4142 2233.4142 973.4142 2233.4142 973.4142 L 2372.5858 1112.5858 C 2373.3668 1113.36684 2374.6332 1113.36684 2375.4142 1112.5858 C 2375.7893 1112.2107 2376 1111.702 2376 1111.1716 L 2376 1071.8284 C 2376 1071.298 2375.7893 1070.7893 2375.4142 1070.4142 L 2233.4142 928.4142 C 2232.6332 927.63316 2231.3668 927.63316 2230.5858 928.4142 C 2230.5858 928.4142 2230.5858 928.4142 2230.5858 928.4142 L 2088.5858 1070.4142 C 2088.2107 1070.7893 2088 1071.298 2088 1071.8284 L 2088 1111.1716 C 2088 1112.27614 2088.8954 1113.1716 2090 1113.1716 C 2090.5304 1113.1716 2091.0391 1112.96086 2091.4142 1112.5858 Z" fill="#4e443c"/><path d="M 2091.4142 1112.5858 L 2230.5858 973.4142 C 2231.3668 972.63316 2232.6332 972.63316 2233.4142 973.4142 C 2233.4142 973.4142 2233.4142 973.4142 2233.4142 973.4142 L 2372.5858 1112.5858 C 2373.3668 1113.36684 2374.6332 1113.36684 2375.4142 1112.5858 C 2375.7893 1112.2107 2376 1111.702 2376 1111.1716 L 2376 1071.8284 C 2376 1071.298 2375.7893 1070.7893 2375.4142 1070.4142 L 2233.4142 928.4142 C 2232.6332 927.63316 2231.3668 927.63316 2230.5858 928.4142 C 2230.5858 928.4142 2230.5858 928.4142 2230.5858 928.4142 L 2088.5858 1070.4142 C 2088.2107 1070.7893 2088 1071.298 2088 1071.8284 L 2088 1111.1716 C 2088 1112.27614 2088.8954 1113.1716 2090 1113.1716 C 2090.5304 1113.1716 2091.0391 1112.96086 2091.4142 1112.5858 Z" stroke="#4e443c" stroke-linecap="round" stroke-linejoin="round" stroke-width="1"/></g></g></svg>
