<?xml version="1.0" encoding="UTF-8" standalone="no"?>
<!DOCTYPE svg PUBLIC "-//W3C//DTD SVG 1.1//EN" "http://www.w3.org/Graphics/SVG/1.1/DTD/svg11.dtd">
<svg xmlns="http://www.w3.org/2000/svg" xmlns:xl="http://www.w3.org/1999/xlink" version="1.1" viewBox="1863 72 738 648" width="738pt" height="54pc" xmlns:dc="http://purl.org/dc/elements/1.1/"><metadata> Produced by OmniGraffle 6.5.3 <dc:date>2016-05-31 22:01:17 +0000</dc:date></metadata><defs/><g stroke="none" stroke-opacity="1" stroke-dasharray="none" fill="none" fill-opacity="1"><title>variants</title><g><title>flat</title><rect x="1863" y="72" width="738" height="648" fill="#ffffff"/><path d="M 2370.566 419.1766 L 2244.8231 293.4391 C 2237.5852 286.19589 2225.8403 286.19589 2218.5924 293.4391 L 2192.484 319.55225 L 2225.6053 352.67355 C 2233.3026 350.07433 2242.1299 351.81885 2248.2636 357.95379 C 2254.4342 364.12697 2256.164 373.03007 2253.4974 380.75532 L 2285.4214 412.67558 C 2293.1467 410.01274 2302.0535 411.73406 2308.2242 417.9132 C 2316.8434 426.52982 2316.8434 440.49815 2308.2242 449.12198 C 2299.5988 457.74613 2285.6333 457.74613 2277.0041 449.12198 C 2270.5216 442.63318 2268.9175 433.107 2272.205 425.11942 L 2242.4298 395.34673 L 2242.4298 473.69279 C 2244.5294 474.73335 2246.5128 476.1193 2248.2636 477.86507 C 2256.8827 486.48327 2256.8827 500.45003 2248.2636 509.0814 C 2239.6444 517.69676 2225.6689 517.69676 2217.056 509.0814 C 2208.4369 500.45003 2208.4369 486.48327 2217.056 477.86507 C 2219.1864 475.73724 2221.6533 474.1275 2224.2854 473.04995 L 2224.2854 393.97927 C 2221.6533 392.90172 2219.1923 391.30545 2217.056 389.1629 C 2210.528 382.6371 2208.9572 373.05451 2212.3055 365.03652 L 2179.6534 332.3794 L 2093.4313 418.59395 C 2086.1896 425.8431 2086.1896 437.58801 2093.4313 444.8309 L 2219.1801 570.56866 C 2226.4195 577.81045 2238.1607 577.81045 2245.4108 570.56866 L 2370.566 445.41356 C 2377.8114 438.1694 2377.8114 426.41855 2370.566 419.1766 Z" fill="#f14e32"/><path d="M 2403.8284 423 L 2518.764 423 C 2519.5215 423 2520.214 422.572 2520.5528 421.89443 L 2536.5528 389.89443 C 2537.0468 388.90647 2536.6463 387.70512 2535.6584 387.21115 C 2535.3806 387.0723 2535.0744 387 2534.764 387 L 2371.8284 387 C 2370.7239 387 2369.8284 387.89543 2369.8284 389 C 2369.8284 389.53043 2370.0391 390.03914 2370.4142 390.41421 L 2402.4142 422.41421 C 2402.7893 422.78929 2403.298 423 2403.8284 423 Z M 2349.8284 369 L 2545.764 369 C 2546.5215 369 2547.214 368.572 2547.5528 367.89443 L 2563.5528 335.89443 C 2564.0468 334.90647 2563.6463 333.70512 2562.6584 333.21115 C 2562.3806 333.0723 2562.0744 333 2561.764 333 L 2317.8284 333 C 2316.7239 333 2315.8284 333.89543 2315.8284 335 C 2315.8284 335.53043 2316.0391 336.03914 2316.4142 336.41421 L 2348.4142 368.41421 C 2348.7893 368.78929 2349.298 369 2349.8284 369 Z M 2295.8284 315 L 2572.764 315 C 2573.5215 315 2574.214 314.572 2574.5528 313.89443 L 2590.5528 281.89443 C 2591.0468 280.90647 2590.6463 279.70512 2589.6584 279.21115 C 2589.3806 279.07229 2589.0744 279 2588.764 279 L 2263.8284 279 C 2262.7239 279 2261.8284 279.89543 2261.8284 281 C 2261.8284 281.53043 2262.0391 282.03914 2262.4142 282.41421 L 2294.4142 314.41421 C 2294.7893 314.78929 2295.298 315 2295.8284 315 Z M 1945.2361 423 L 2060.1716 423 C 2060.702 423 2061.2107 422.78929 2061.5858 422.41421 L 2093.5858 390.41421 C 2094.3668 389.63316 2094.3668 388.36684 2093.5858 387.58579 C 2093.2107 387.21071 2092.702 387 2092.1716 387 L 1929.2361 387 C 1928.1315 387 1927.2361 387.89543 1927.2361 389 C 1927.2361 389.3105 1927.3084 389.61672 1927.4472 389.89443 L 1943.4472 421.89443 C 1943.786 422.572 1944.4785 423 1945.2361 423 Z M 1918.2361 369 L 2114.1716 369 C 2114.702 369 2115.2107 368.78929 2115.5858 368.41421 L 2147.5858 336.41421 C 2148.3668 335.63316 2148.3668 334.36684 2147.5858 333.58579 C 2147.2107 333.21071 2146.702 333 2146.1716 333 L 1902.2361 333 C 1901.1315 333 1900.2361 333.89543 1900.2361 335 C 1900.2361 335.3105 1900.3084 335.61672 1900.4472 335.89443 L 1916.4472 367.89443 C 1916.786 368.572 1917.4785 369 1918.2361 369 Z M 1891.2361 315 L 2168.1716 315 C 2168.702 315 2169.2107 314.78929 2169.5858 314.41421 L 2201.5858 282.41421 C 2202.3668 281.63316 2202.3668 280.36684 2201.5858 279.58579 C 2201.2107 279.21071 2200.702 279 2200.1716 279 L 1875.2361 279 C 1874.1315 279 1873.2361 279.89543 1873.2361 281 C 1873.2361 281.31049 1873.3084 281.61672 1873.4472 281.89443 L 1889.4472 313.89443 C 1889.786 314.572 1890.4785 315 1891.2361 315 Z" fill="#4e443c"/></g></g></svg>
