<?xml version="1.0" encoding="UTF-8" standalone="no"?>
<!DOCTYPE svg PUBLIC "-//W3C//DTD SVG 1.1//EN" "http://www.w3.org/Graphics/SVG/1.1/DTD/svg11.dtd">
<svg xmlns="http://www.w3.org/2000/svg" xmlns:xl="http://www.w3.org/1999/xlink" version="1.1" viewBox="5319 792 738 648" width="738pt" height="54pc" xmlns:dc="http://purl.org/dc/elements/1.1/"><metadata> Produced by OmniGraffle 6.5.3 <dc:date>2016-05-31 22:02:45 +0000</dc:date></metadata><defs/><g stroke="none" stroke-opacity="1" stroke-dasharray="none" fill="none" fill-opacity="1"><title>variants</title><g><title>flat</title><rect x="5319" y="792" width="738" height="648" fill="#fafafa"/><path d="M 5826.566 1139.1766 L 5700.823 1013.4391 C 5693.5852 1006.1959 5681.8403 1006.1959 5674.5924 1013.4391 L 5648.484 1039.55225 L 5681.6053 1072.67355 C 5689.3026 1070.07433 5698.13 1071.81885 5704.2636 1077.9538 C 5710.4342 1084.127 5712.164 1093.03007 5709.4974 1100.7553 L 5741.4214 1132.6756 C 5749.1467 1130.01274 5758.0535 1131.73406 5764.2242 1137.9132 C 5772.8434 1146.5298 5772.8434 1160.49815 5764.2242 1169.122 C 5755.5988 1177.7461 5741.6333 1177.7461 5733.004 1169.122 C 5726.5216 1162.6332 5724.9175 1153.107 5728.205 1145.1194 L 5698.4298 1115.3467 L 5698.4298 1193.6928 C 5700.5294 1194.73335 5702.5128 1196.1193 5704.2636 1197.8651 C 5712.8827 1206.4833 5712.8827 1220.45 5704.2636 1229.0814 C 5695.6444 1237.69676 5681.669 1237.69676 5673.056 1229.0814 C 5664.437 1220.45 5664.437 1206.4833 5673.056 1197.8651 C 5675.1864 1195.73724 5677.6533 1194.1275 5680.2854 1193.04995 L 5680.2854 1113.97927 C 5677.6533 1112.9017 5675.1923 1111.30545 5673.056 1109.1629 C 5666.528 1102.6371 5664.9572 1093.0545 5668.3055 1085.0365 L 5635.6534 1052.3794 L 5549.4313 1138.59395 C 5542.1896 1145.8431 5542.1896 1157.588 5549.4313 1164.8309 L 5675.18 1290.5687 C 5682.4195 1297.81045 5694.1607 1297.81045 5701.4108 1290.5687 L 5826.566 1165.41356 C 5833.8114 1158.1694 5833.8114 1146.41855 5826.566 1139.1766 Z" fill="#f14e32"/><path d="M 5828.5804 1112.5539 L 5728.211 1011.40876 C 5727.433 1010.6247 5727.438 1009.3584 5728.222 1008.58035 C 5728.5965 1008.2086 5729.103 1008 5729.6307 1008 L 5768.9922 1008 C 5769.5273 1008 5770.04 1008.21436 5770.4158 1008.5952 L 5831.4235 1070.41586 C 5831.793 1070.79014 5832 1071.29484 5832 1071.8207 L 5832 1111.14516 C 5832 1112.2497 5831.1046 1113.14516 5830 1113.14516 C 5829.467 1113.14516 5828.956 1112.9323 5828.5804 1112.5539 Z" fill="#4e443c"/><path d="M 5828.5804 1112.5539 L 5728.211 1011.40876 C 5727.433 1010.6247 5727.438 1009.3584 5728.222 1008.58035 C 5728.5965 1008.2086 5729.103 1008 5729.6307 1008 L 5768.9922 1008 C 5769.5273 1008 5770.04 1008.21436 5770.4158 1008.5952 L 5831.4235 1070.41586 C 5831.793 1070.79014 5832 1071.29484 5832 1071.8207 L 5832 1111.14516 C 5832 1112.2497 5831.1046 1113.14516 5830 1113.14516 C 5829.467 1113.14516 5828.956 1112.9323 5828.5804 1112.5539 Z" stroke="black" stroke-linecap="round" stroke-linejoin="round" stroke-width="1"/><path d="M 5547.4196 1112.5539 L 5647.789 1011.40876 C 5648.567 1010.6247 5648.562 1009.3584 5647.778 1008.58035 C 5647.4035 1008.2086 5646.897 1008 5646.3693 1008 L 5607.0078 1008 C 5606.4727 1008 5605.96 1008.21436 5605.5842 1008.5952 L 5544.5765 1070.41586 C 5544.207 1070.79014 5544 1071.29484 5544 1071.8207 L 5544 1111.14516 C 5544 1112.2497 5544.8954 1113.14516 5546 1113.14516 C 5546.533 1113.14516 5547.044 1112.9323 5547.4196 1112.5539 Z" fill="#4e443c"/><path d="M 5547.4196 1112.5539 L 5647.789 1011.40876 C 5648.567 1010.6247 5648.562 1009.3584 5647.778 1008.58035 C 5647.4035 1008.2086 5646.897 1008 5646.3693 1008 L 5607.0078 1008 C 5606.4727 1008 5605.96 1008.21436 5605.5842 1008.5952 L 5544.5765 1070.41586 C 5544.207 1070.79014 5544 1071.29484 5544 1071.8207 L 5544 1111.14516 C 5544 1112.2497 5544.8954 1113.14516 5546 1113.14516 C 5546.533 1113.14516 5547.044 1112.9323 5547.4196 1112.5539 Z" stroke="black" stroke-linecap="round" stroke-linejoin="round" stroke-width="1"/><path d="M 5864.5804 1076.5539 L 5764.211 975.40876 C 5763.433 974.6247 5763.438 973.3584 5764.222 972.58035 C 5764.5965 972.2086 5765.103 972 5765.6307 972 L 5804.9922 972 C 5805.5273 972 5806.04 972.21436 5806.4158 972.5952 L 5867.4235 1034.41586 C 5867.793 1034.79014 5868 1035.29484 5868 1035.8207 L 5868 1075.14516 C 5868 1076.2497 5867.1046 1077.14516 5866 1077.14516 C 5865.467 1077.14516 5864.956 1076.9323 5864.5804 1076.5539 Z" fill="#4e443c"/><path d="M 5864.5804 1076.5539 L 5764.211 975.40876 C 5763.433 974.6247 5763.438 973.3584 5764.222 972.58035 C 5764.5965 972.2086 5765.103 972 5765.6307 972 L 5804.9922 972 C 5805.5273 972 5806.04 972.21436 5806.4158 972.5952 L 5867.4235 1034.41586 C 5867.793 1034.79014 5868 1035.29484 5868 1035.8207 L 5868 1075.14516 C 5868 1076.2497 5867.1046 1077.14516 5866 1077.14516 C 5865.467 1077.14516 5864.956 1076.9323 5864.5804 1076.5539 Z" stroke="black" stroke-linecap="round" stroke-linejoin="round" stroke-width="1"/><path d="M 5511.4196 1076.5539 L 5611.789 975.40876 C 5612.567 974.6247 5612.562 973.3584 5611.778 972.58035 C 5611.4035 972.2086 5610.897 972 5610.3693 972 L 5571.0078 972 C 5570.4727 972 5569.96 972.21436 5569.5842 972.5952 L 5508.5765 1034.41586 C 5508.207 1034.79014 5508 1035.29484 5508 1035.8207 L 5508 1075.14516 C 5508 1076.2497 5508.8954 1077.14516 5510 1077.14516 C 5510.533 1077.14516 5511.044 1076.9323 5511.4196 1076.5539 Z" fill="#4e443c"/><path d="M 5511.4196 1076.5539 L 5611.789 975.40876 C 5612.567 974.6247 5612.562 973.3584 5611.778 972.58035 C 5611.4035 972.2086 5610.897 972 5610.3693 972 L 5571.0078 972 C 5570.4727 972 5569.96 972.21436 5569.5842 972.5952 L 5508.5765 1034.41586 C 5508.207 1034.79014 5508 1035.29484 5508 1035.8207 L 5508 1075.14516 C 5508 1076.2497 5508.8954 1077.14516 5510 1077.14516 C 5510.533 1077.14516 5511.044 1076.9323 5511.4196 1076.5539 Z" stroke="black" stroke-linecap="round" stroke-linejoin="round" stroke-width="1"/></g></g></svg>
