<?xml version="1.0" encoding="UTF-8" standalone="no"?>
<!DOCTYPE svg PUBLIC "-//W3C//DTD SVG 1.1//EN" "http://www.w3.org/Graphics/SVG/1.1/DTD/svg11.dtd">
<svg xmlns="http://www.w3.org/2000/svg" xmlns:xl="http://www.w3.org/1999/xlink" version="1.1" viewBox="3591 792 738 648" width="738pt" height="54pc" xmlns:dc="http://purl.org/dc/elements/1.1/"><metadata> Produced by OmniGraffle 6.5.3 <dc:date>2016-05-31 22:02:45 +0000</dc:date></metadata><defs/><g stroke="none" stroke-opacity="1" stroke-dasharray="none" fill="none" fill-opacity="1"><title>variants</title><g><title>flat</title><rect x="3591" y="792" width="738" height="648" fill="#ffffff"/><path d="M 4098.566 1139.1699 L 3972.823 1013.4324 C 3965.5852 1006.1892 3953.8403 1006.1892 3946.5924 1013.4324 L 3920.484 1039.54556 L 3953.6053 1072.66686 C 3961.3026 1070.06764 3970.1299 1071.81216 3976.2636 1077.9471 C 3982.4342 1084.1203 3984.164 1093.0234 3981.4974 1100.7486 L 4013.4214 1132.6689 C 4021.1467 1130.00605 4030.0535 1131.7274 4036.2242 1137.9065 C 4044.8434 1146.5231 4044.8434 1160.49146 4036.2242 1169.1153 C 4027.5988 1177.73944 4013.6333 1177.73944 4005.0041 1169.1153 C 3998.5216 1162.6265 3996.9175 1153.1003 4000.205 1145.1127 L 3970.4298 1115.34004 L 3970.4298 1193.6861 C 3972.5294 1194.72666 3974.5128 1196.1126 3976.2636 1197.8584 C 3984.8827 1206.4766 3984.8827 1220.44334 3976.2636 1229.0747 C 3967.6444 1237.6901 3953.669 1237.6901 3945.056 1229.0747 C 3936.437 1220.44334 3936.437 1206.4766 3945.056 1197.8584 C 3947.1864 1195.73055 3949.6533 1194.1208 3952.2854 1193.0433 L 3952.2854 1113.9726 C 3949.6533 1112.895 3947.1923 1111.29876 3945.056 1109.1562 C 3938.528 1102.6304 3936.9572 1093.0478 3940.3055 1085.02983 L 3907.6534 1052.3727 L 3821.4313 1138.58726 C 3814.1896 1145.8364 3814.1896 1157.5813 3821.4313 1164.8242 L 3947.18 1290.562 C 3954.4195 1297.80376 3966.1607 1297.80376 3973.4108 1290.562 L 4098.566 1165.4069 C 4105.8114 1158.1627 4105.8114 1146.41187 4098.566 1139.1699 Z" fill="#f14e32"/><path d="M 3888.7616 1304.8003 L 4031.2538 1305.3489 C 4032.3584 1305.3531 4033.2504 1306.252 4033.246 1307.35656 C 4033.244 1307.8843 4033.0335 1308.3899 4032.6603 1308.7631 L 4004.8275 1336.5959 C 4004.4492 1336.9742 4003.935 1337.1852 4003.4 1337.1816 L 3916.5472 1336.6068 C 3916.0214 1336.6033 3915.518 1336.3929 3915.1463 1336.0211 L 3887.3397 1308.2145 C 3886.5586 1307.4334 3886.5586 1306.1671 3887.3397 1305.386 C 3887.7166 1305.0091 3888.2285 1304.7982 3888.7616 1304.8003 Z" fill="#4e443c"/><path d="M 3888.7616 1304.8003 L 4031.2538 1305.3489 C 4032.3584 1305.3531 4033.2504 1306.252 4033.246 1307.35656 C 4033.244 1307.8843 4033.0335 1308.3899 4032.6603 1308.7631 L 4004.8275 1336.5959 C 4004.4492 1336.9742 4003.935 1337.1852 4003.4 1337.1816 L 3916.5472 1336.6068 C 3916.0214 1336.6033 3915.518 1336.3929 3915.1463 1336.0211 L 3887.3397 1308.2145 C 3886.5586 1307.4334 3886.5586 1306.1671 3887.3397 1305.386 C 3887.7166 1305.0091 3888.2285 1304.7982 3888.7616 1304.8003 Z" stroke="#4e443c" stroke-linecap="round" stroke-linejoin="round" stroke-width="1"/></g></g></svg>
