<?xml version="1.0" encoding="UTF-8" standalone="no"?>
<!DOCTYPE svg PUBLIC "-//W3C//DTD SVG 1.1//EN" "http://www.w3.org/Graphics/SVG/1.1/DTD/svg11.dtd">
<svg xmlns="http://www.w3.org/2000/svg" xmlns:xl="http://www.w3.org/1999/xlink" version="1.1" viewBox="2727 72 738 648" width="738pt" height="54pc" xmlns:dc="http://purl.org/dc/elements/1.1/"><metadata> Produced by OmniGraffle 6.5.3 <dc:date>2016-05-31 22:02:45 +0000</dc:date></metadata><defs/><g stroke="none" stroke-opacity="1" stroke-dasharray="none" fill="none" fill-opacity="1"><title>variants</title><g><title>flat</title><rect x="2727" y="72" width="738" height="648" fill="#ffffff"/><path d="M 3235.8016 419.1766 L 3110.0587 293.4391 C 3102.8209 286.19589 3091.076 286.19589 3083.828 293.4391 L 3057.7196 319.55225 L 3090.8409 352.67355 C 3098.5383 350.07433 3107.3655 351.81885 3113.4992 357.95379 C 3119.6699 364.12697 3121.3996 373.03007 3118.733 380.75532 L 3150.657 412.67558 C 3158.3823 410.01274 3167.2892 411.73406 3173.4598 417.9132 C 3182.079 426.52982 3182.079 440.49815 3173.4598 449.12198 C 3164.8344 457.74613 3150.869 457.74613 3142.2398 449.12198 C 3135.7572 442.63318 3134.1531 433.107 3137.4406 425.11942 L 3107.6654 395.34673 L 3107.6654 473.69279 C 3109.765 474.73335 3111.7484 476.1193 3113.4992 477.86507 C 3122.1183 486.48327 3122.1183 500.45003 3113.4992 509.0814 C 3104.88 517.69676 3090.9045 517.69676 3082.2917 509.0814 C 3073.6725 500.45003 3073.6725 486.48327 3082.2917 477.86507 C 3084.422 475.73724 3086.889 474.1275 3089.521 473.04995 L 3089.521 393.97927 C 3086.889 392.90172 3084.428 391.30545 3082.2917 389.1629 C 3075.7637 382.6371 3074.1928 373.05451 3077.5411 365.03652 L 3044.889 332.3794 L 2958.667 418.59395 C 2951.4252 425.8431 2951.4252 437.58801 2958.667 444.8309 L 3084.4157 570.56866 C 3091.6552 577.81045 3103.3963 577.81045 3110.6464 570.56866 L 3235.8016 445.41356 C 3243.047 438.1694 3243.047 426.41855 3235.8016 419.1766 Z" fill="#f14e32"/><path d="M 3213.6498 368.41421 C 3214.025 368.78929 3214.5336 369 3215.064 369 L 3410.9996 369 C 3411.7571 369 3412.4496 368.572 3412.7884 367.89443 L 3428.7884 335.89443 C 3429.2824 334.90647 3428.882 333.70512 3427.894 333.21115 C 3427.6163 333.0723 3427.31 333 3426.9996 333 L 3183.064 333 C 3181.9595 333 3181.064 333.89543 3181.064 335 C 3181.064 335.53043 3181.2748 336.03914 3181.6498 336.41421 L 3213.6498 368.41421 Z M 3159.6498 314.41421 C 3160.025 314.78929 3160.5336 315 3161.064 315 L 3437.9996 315 C 3438.7571 315 3439.4496 314.572 3439.7884 313.89443 L 3455.7884 281.89443 C 3456.2824 280.90647 3455.882 279.70512 3454.894 279.21115 C 3454.6163 279.07229 3454.31 279 3453.9996 279 L 3129.064 279 C 3127.9595 279 3127.064 279.89543 3127.064 281 C 3127.064 281.53043 3127.2748 282.03914 3127.6498 282.41421 L 3159.6498 314.41421 Z M 2783.4717 369 L 2979.4072 369 C 2979.9376 369 2980.4463 368.78929 2980.8214 368.41421 L 3012.8214 336.41421 C 3013.6025 335.63316 3013.6025 334.36684 3012.8214 333.58579 C 3012.4463 333.21071 3011.9376 333 3011.4072 333 L 2767.4717 333 C 2766.3671 333 2765.4717 333.89543 2765.4717 335 C 2765.4717 335.3105 2765.544 335.61672 2765.6828 335.89443 L 2781.6828 367.89443 C 2782.0216 368.572 2782.7142 369 2783.4717 369 Z M 3065.4072 279 L 2740.4717 279 C 2739.3671 279 2738.4717 279.89543 2738.4717 281 C 2738.4717 281.31049 2738.544 281.61672 2738.6828 281.89443 L 2754.6828 313.89443 C 2755.0216 314.572 2755.7142 315 2756.4717 315 L 3033.4072 315 C 3033.9376 315 3034.4463 314.78929 3034.8214 314.41421 L 3066.8214 282.41421 C 3067.6025 281.63316 3067.6025 280.36684 3066.8214 279.58579 C 3066.4463 279.21071 3065.9376 279 3065.4072 279 Z" fill="#4e443c"/></g></g></svg>
