<?xml version="1.0" encoding="UTF-8" standalone="no"?>
<!DOCTYPE svg PUBLIC "-//W3C//DTD SVG 1.1//EN" "http://www.w3.org/Graphics/SVG/1.1/DTD/svg11.dtd">
<svg xmlns="http://www.w3.org/2000/svg" xmlns:xl="http://www.w3.org/1999/xlink" version="1.1" viewBox="3591 72 738 648" width="738pt" height="54pc" xmlns:dc="http://purl.org/dc/elements/1.1/"><metadata> Produced by OmniGraffle 6.5.3 <dc:date>2016-05-31 22:02:45 +0000</dc:date></metadata><defs/><g stroke="none" stroke-opacity="1" stroke-dasharray="none" fill="none" fill-opacity="1"><title>variants</title><g><title>flat</title><rect x="3591" y="72" width="738" height="648" fill="#ffffff"/><path d="M 4098.5657 419.1699 L 3972.823 293.4324 C 3965.585 286.1892 3953.84 286.1892 3946.5922 293.4324 L 3920.4837 319.54556 L 3953.605 352.66686 C 3961.3024 350.06764 3970.1297 351.81216 3976.2633 357.9471 C 3982.434 364.12028 3984.1638 373.02338 3981.4972 380.74863 L 4013.4212 412.6689 C 4021.1465 410.00605 4030.0533 411.72737 4036.224 417.9065 C 4044.8431 426.52313 4044.8431 440.49146 4036.224 449.1153 C 4027.5986 457.73944 4013.633 457.73944 4005.004 449.1153 C 3998.5214 442.6265 3996.9173 433.10031 4000.2048 425.11273 L 3970.4296 395.34004 L 3970.4296 473.6861 C 3972.5292 474.72666 3974.5126 476.11262 3976.2633 477.85838 C 3984.8825 486.47658 3984.8825 500.44334 3976.2633 509.0747 C 3967.6442 517.69007 3953.6687 517.69007 3945.0558 509.0747 C 3936.4367 500.44334 3936.4367 486.47658 3945.0558 477.85838 C 3947.1861 475.73055 3949.653 474.1208 3952.2852 473.04327 L 3952.2852 393.97258 C 3949.653 392.89503 3947.192 391.29876 3945.0558 389.1562 C 3938.5278 382.63042 3936.957 373.04782 3940.3053 365.02983 L 3907.6531 332.37272 L 3821.4311 418.58726 C 3814.1893 425.83642 3814.1893 437.58132 3821.4311 444.82422 L 3947.1799 570.56197 C 3954.4193 577.80376 3966.1605 577.80376 3973.4106 570.56197 L 4098.5657 445.40687 C 4105.8111 438.16272 4105.8111 426.41187 4098.5657 419.1699 Z" fill="#f14e32"/><path d="M 4131.8282 422.9933 L 4246.7637 422.9933 C 4247.5213 422.9933 4248.2138 422.5653 4248.5526 421.88774 L 4264.5526 389.88774 C 4265.0465 388.89978 4264.646 387.69843 4263.6581 387.20446 C 4263.3804 387.0656 4263.0742 386.9933 4262.7637 386.9933 L 4099.8282 386.9933 C 4098.7236 386.9933 4097.8282 387.88874 4097.8282 388.9933 C 4097.8282 389.52374 4098.039 390.03245 4098.414 390.40752 L 4130.414 422.40752 C 4130.789 422.7826 4131.2978 422.9933 4131.8282 422.9933 L 4131.8282 422.9933 Z M 3820.1714 386.9933 L 3657.2358 386.9933 C 3656.1313 386.9933 3655.2358 387.88874 3655.2358 388.9933 C 3655.2358 389.3038 3655.3081 389.61003 3655.447 389.88774 L 3671.447 421.88774 C 3671.7858 422.5653 3672.4783 422.9933 3673.2358 422.9933 L 3788.1714 422.9933 C 3788.7018 422.9933 3789.2105 422.7826 3789.5856 422.40752 L 3821.5856 390.40752 C 3822.3666 389.62648 3822.3666 388.36015 3821.5856 387.5791 C 3821.2105 387.20402 3820.7018 386.9933 3820.1714 386.9933 Z" fill="#4e443c"/></g></g></svg>
