<?xml version="1.0" encoding="UTF-8" standalone="no"?>
<!DOCTYPE svg PUBLIC "-//W3C//DTD SVG 1.1//EN" "http://www.w3.org/Graphics/SVG/1.1/DTD/svg11.dtd">
<svg xmlns="http://www.w3.org/2000/svg" xmlns:xl="http://www.w3.org/1999/xlink" version="1.1" viewBox="2727 792 738 648" width="738pt" height="54pc" xmlns:dc="http://purl.org/dc/elements/1.1/"><metadata> Produced by OmniGraffle 6.5.3 <dc:date>2016-05-31 22:02:45 +0000</dc:date></metadata><defs/><g stroke="none" stroke-opacity="1" stroke-dasharray="none" fill="none" fill-opacity="1"><title>variants</title><g><title>flat</title><rect x="2727" y="792" width="738" height="648" fill="#ffffff"/><path d="M 3243.566 1139.1766 L 3117.8231 1013.4391 C 3110.5852 1006.1959 3098.8403 1006.1959 3091.5924 1013.4391 L 3065.484 1039.55225 L 3098.6053 1072.67355 C 3106.3026 1070.07433 3115.1299 1071.81885 3121.2636 1077.9538 C 3127.4342 1084.127 3129.164 1093.03007 3126.4974 1100.7553 L 3158.4214 1132.6756 C 3166.1467 1130.01274 3175.0535 1131.73406 3181.2242 1137.9132 C 3189.8434 1146.5298 3189.8434 1160.49815 3181.2242 1169.122 C 3172.5988 1177.7461 3158.6333 1177.7461 3150.0041 1169.122 C 3143.5216 1162.6332 3141.9175 1153.107 3145.205 1145.1194 L 3115.4298 1115.3467 L 3115.4298 1193.6928 C 3117.5294 1194.73335 3119.5128 1196.1193 3121.2636 1197.8651 C 3129.8827 1206.4833 3129.8827 1220.45 3121.2636 1229.0814 C 3112.6444 1237.69676 3098.6689 1237.69676 3090.056 1229.0814 C 3081.4369 1220.45 3081.4369 1206.4833 3090.056 1197.8651 C 3092.1864 1195.73724 3094.6533 1194.1275 3097.2854 1193.04995 L 3097.2854 1113.97927 C 3094.6533 1112.9017 3092.1923 1111.30545 3090.056 1109.1629 C 3083.528 1102.6371 3081.9572 1093.0545 3085.3055 1085.0365 L 3052.6534 1052.3794 L 2966.4313 1138.59395 C 2959.1896 1145.8431 2959.1896 1157.588 2966.4313 1164.8309 L 3092.18 1290.5687 C 3099.4195 1297.81045 3111.1607 1297.81045 3118.4108 1290.5687 L 3243.566 1165.41356 C 3250.8114 1158.1694 3250.8114 1146.41855 3243.566 1139.1766 Z" fill="#f14e32"/><path d="M 2964.4196 1191.4461 L 3064.789 1292.59124 C 3065.567 1293.3753 3065.5621 1294.6416 3064.778 1295.41965 C 3064.4035 1295.7914 3063.897 1296 3063.3693 1296 L 3024.0078 1296 C 3023.4727 1296 3022.96 1295.7856 3022.5842 1295.4048 L 2961.5765 1233.58414 C 2961.2071 1233.20986 2961 1232.7052 2961 1232.1793 L 2961 1192.85484 C 2961 1191.7503 2961.8954 1190.85484 2963 1190.85484 C 2963.5331 1190.85484 2964.0441 1191.0677 2964.4196 1191.4461 Z" fill="#4e443c"/><path d="M 2964.4196 1191.4461 L 3064.789 1292.59124 C 3065.567 1293.3753 3065.5621 1294.6416 3064.778 1295.41965 C 3064.4035 1295.7914 3063.897 1296 3063.3693 1296 L 3024.0078 1296 C 3023.4727 1296 3022.96 1295.7856 3022.5842 1295.4048 L 2961.5765 1233.58414 C 2961.2071 1233.20986 2961 1232.7052 2961 1232.1793 L 2961 1192.85484 C 2961 1191.7503 2961.8954 1190.85484 2963 1190.85484 C 2963.5331 1190.85484 2964.0441 1191.0677 2964.4196 1191.4461 Z" stroke="#4e443c" stroke-linecap="round" stroke-linejoin="round" stroke-width="1"/><path d="M 3245.5804 1191.4461 L 3145.211 1292.59124 C 3144.433 1293.3753 3144.4379 1294.6416 3145.222 1295.41965 C 3145.5965 1295.7914 3146.103 1296 3146.6307 1296 L 3185.9922 1296 C 3186.5273 1296 3187.04 1295.7856 3187.4158 1295.4048 L 3248.4235 1233.58414 C 3248.793 1233.20986 3249 1232.7052 3249 1232.1793 L 3249 1192.85484 C 3249 1191.7503 3248.1046 1190.85484 3247 1190.85484 C 3246.4669 1190.85484 3245.9559 1191.0677 3245.5804 1191.4461 Z" fill="#4e443c"/><path d="M 3245.5804 1191.4461 L 3145.211 1292.59124 C 3144.433 1293.3753 3144.4379 1294.6416 3145.222 1295.41965 C 3145.5965 1295.7914 3146.103 1296 3146.6307 1296 L 3185.9922 1296 C 3186.5273 1296 3187.04 1295.7856 3187.4158 1295.4048 L 3248.4235 1233.58414 C 3248.793 1233.20986 3249 1232.7052 3249 1232.1793 L 3249 1192.85484 C 3249 1191.7503 3248.1046 1190.85484 3247 1190.85484 C 3246.4669 1190.85484 3245.9559 1191.0677 3245.5804 1191.4461 Z" stroke="#4e443c" stroke-linecap="round" stroke-linejoin="round" stroke-width="1"/></g></g></svg>
